# generated from PmQm by Jehee Lee
:FULLY-SPECIFIED
:DEGREES
596
root 2.44091 24.9514 -15.6218 154.135 14.0666 -175.977
RightUpLeg -48.7374 4.44586 1.60728
RightLeg 76.8435 -0.0183915 -1.47351
RightFoot -4.17252 -0.431001 6.42222
RightToes -0.000541893 -0.000659172 -0.000493268
Spine 12.798 -0.360802 1.84611
Spine1 25.8143 -1.12222 3.80589
HEad -16.9596 -30.7842 7.03031
LeftShoulder1 -3.88251e-019 -0 -3.92111e-022
LeftArm -32.6759 -3.98501 -86.3262
LeftForeArm 11.3437 2.30746 3.02275
LeftHand -0.495285 -8.03392 4.64998
RightShoulder 7.45443e-017 -2.42657e-020 1.96277e-018
RightArm -23.8687 -2.78766 72.5371
RightForeArm 2.09318 1.45249 5.88933
RightHand 0.0202078 11.4434 -0.290812
LeftUpLeg -49.897 -6.97221 9.29373
LeftLeg 75.9921 -2.70149 -11.235
LeftFoot -4.37419 0.440305 -6.79969
LeftToes 3.91355e-005 3.11907e-005 -4.10385e-006
597
root 2.44259 24.8963 -15.5876 153.324 14.0082 -176.27
RightUpLeg -48.2133 5.28595 0.760244
RightLeg 77.1289 0.482302 1.08892
RightFoot -4.3494 -0.509829 7.85339
RightToes -0.000541893 -0.000659172 -0.000493268
Spine 12.712 -0.327619 1.76048
Spine1 25.6382 -1.03886 3.60367
HEad -16.0578 -30.6519 6.88629
LeftShoulder1 -3.88251e-019 -0 -3.92111e-022
LeftArm -32.5989 -4.22598 -86.0763
LeftForeArm 12.5236 2.28947 2.87899
LeftHand -0.590126 -7.55147 5.64997
RightShoulder 7.45443e-017 -2.42657e-020 1.96277e-018
RightArm -24.1891 -2.32083 73.1884
RightForeArm -0.545548 0.401925 5.19356
RightHand 0.106808 12.1963 0.264378
LeftUpLeg -49.2251 -7.51331 8.96256
LeftLeg 76.0723 -2.60286 -10.8618
LeftFoot -4.37112 0.443914 -6.86535
LeftToes 3.91355e-005 3.11907e-005 -4.10385e-006
598
root 2.4404 24.8243 -15.5599 152.643 13.7383 -176.493
RightUpLeg -47.9841 5.91504 -0.107298
RightLeg 77.5359 0.852074 3.12567
RightFoot -3.77834 -0.643536 9.31587
RightToes -0.000541893 -0.000659172 -0.000493268
Spine 12.7416 -0.38822 1.68744
Spine1 25.6933 -1.14345 3.37524
HEad -16.2228 -30.3223 7.1014
LeftShoulder1 -3.88251e-019 -0 -3.92111e-022
LeftArm -32.0261 -4.56327 -85.7768
LeftForeArm 14.9832 2.26069 2.38932
LeftHand -0.744261 -7.07828 7.27105
RightShoulder 7.45443e-017 -2.42657e-020 1.96277e-018
RightArm -24.4983 -1.81893 73.6692
RightForeArm -3.40348 -0.237838 4.75814
RightHand 0.200735 13.064 0.809523
LeftUpLeg -48.768 -8.40907 8.56463
LeftLeg 76.1783 -2.46377 -10.3192
LeftFoot -4.34542 0.434036 -6.66992
LeftToes 3.91355e-005 3.11907e-005 -4.10385e-006
599
root 2.41134 24.7534 -15.4974 151.905 13.538 -176.794
RightUpLeg -47.8762 6.46842 -0.925886
RightLeg 77.8946 1.10349 4.63934
RightFoot -2.31469 -0.83206 10.3079
RightToes -0.000541893 -0.000659172 -0.000493268
Spine 12.8602 -0.448567 1.6246
Spine1 25.9274 -1.24708 3.13561
HEad -16.8794 -29.9966 7.32347
LeftShoulder1 -3.88251e-019 -0 -3.92111e-022
LeftArm -31.5703 -4.78595 -85.5743
LeftForeArm 17.9361 2.23123 1.89945
LeftHand -0.75992 -6.84807 7.54401
RightShoulder 7.45443e-017 -2.42657e-020 1.96277e-018
RightArm -24.6698 -1.61805 73.8443
RightForeArm -5.26551 -0.22727 4.65185
RightHand 0.340208 13.1132 1.67884
LeftUpLeg -48.2658 -9.13831 8.04503
LeftLeg 76.17 -2.329 -9.68943
LeftFoot -4.15638 0.417828 -6.25532
LeftToes 3.91355e-005 3.11907e-005 -4.10385e-006
600
root 2.38105 24.7063 -15.4376 151.36 13.6036 -177.099
RightUpLeg -47.8165 6.86509 -1.43035
RightLeg 77.7936 1.24953 5.39538
RightFoot -1.71054 -0.918629 10.7359
RightToes -0.000541893 -0.000659172 -0.000493268
Spine 12.9118 -0.453504 1.61573
Spine1 26.0294 -1.2484 3.0405
HEad -17.1876 -29.8145 7.20049
LeftShoulder1 -3.88251e-019 -0 -3.92111e-022
LeftArm -31.607 -4.64258 -85.5701
LeftForeArm 20.1503 2.20522 1.67572
LeftHand -0.666967 -6.80415 6.68779
RightShoulder 7.45443e-017 -2.42657e-020 1.96277e-018
RightArm -24.5701 -1.58731 73.699
RightForeArm -4.71186 -0.0605128 4.70783
RightHand 0.373786 12.9055 1.91585
LeftUpLeg -47.8614 -9.09048 7.63518
LeftLeg 76.1634 -2.2694 -9.40794
LeftFoot -3.97709 0.39689 -5.79433
LeftToes 3.91355e-005 3.11907e-005 -4.10385e-006
601
root 2.36068 24.6916 -15.4001 151.158 13.8257 -177.194
RightUpLeg -47.594 6.94075 -1.51834
RightLeg 76.5405 1.33132 5.20922
RightFoot -2.31707 -0.868145 10.7679
RightToes -0.000541893 -0.000659172 -0.000493268
Spine 12.8648 -0.45802 1.72881
Spine1 25.9345 -1.26747 3.16211
HEad -16.9506 -29.7594 6.90413
LeftShoulder1 -3.88251e-019 -0 -3.92111e-022
LeftArm -31.8468 -4.15761 -85.6025
LeftForeArm 20.7659 2.19976 1.58878
LeftHand -0.67208 -6.61409 6.83431
RightShoulder 7.45443e-017 -2.42657e-020 1.96277e-018
RightArm -24.4085 -1.35159 73.7162
RightForeArm -1.28392 -0.23277 4.43122
RightHand 0.220499 13.0529 0.936671
LeftUpLeg -47.6673 -8.43095 7.54353
LeftLeg 76.1857 -2.29665 -9.55301
LeftFoot -4.02408 0.366345 -5.35057
LeftToes 3.91355e-005 3.11907e-005 -4.10385e-006
602
root 2.34482 24.7027 -15.3575 151.111 13.9829 -177.1
RightUpLeg -47.1569 6.67123 -1.36082
RightLeg 74.4907 1.37771 4.59678
RightFoot -2.27565 -0.82236 10.1588
RightToes -0.000541893 -0.000659172 -0.000493268
Spine 12.8231 -0.520887 1.93323
Spine1 25.848 -1.41585 3.36246
HEad -16.4679 -29.8151 6.75474
LeftShoulder1 -3.88251e-019 -0 -3.92111e-022
LeftArm -31.9953 -3.75603 -85.4224
LeftForeArm 20.3339 2.21363 1.4601
LeftHand -0.753258 -6.33118 7.78473
RightShoulder 7.45443e-017 -2.42657e-020 1.96277e-018
RightArm -24.2763 -0.923465 74.1499
RightForeArm 3.12787 -0.564699 3.82298
RightHand -0.204313 13.3882 -1.70052
LeftUpLeg -47.5502 -7.84954 7.71643
LeftLeg 76.0467 -2.25588 -9.2547
LeftFoot -4.1405 0.358422 -5.30355
LeftToes 3.91355e-005 3.11907e-005 -4.10385e-006
603
root 2.36445 24.7095 -15.338 151.09 13.9576 -177.109
RightUpLeg -46.962 6.16201 -1.25091
RightLeg 73.3964 1.4104 4.3646
RightFoot -1.35318 -0.793595 8.96674
RightToes -0.000541893 -0.000659172 -0.000493268
Spine 12.7951 -0.580895 2.04244
Spine1 25.7899 -1.546 3.42922
HEad -15.9418 -30.015 6.77379
LeftShoulder1 -3.88251e-019 -0 -3.92111e-022
LeftArm -32.0925 -3.61263 -85.1493
LeftForeArm 20.1154 2.22201 1.37229
LeftHand -0.778537 -6.27547 8.06955
RightShoulder 7.45443e-017 -2.42657e-020 1.96277e-018
RightArm -24.1265 -0.798126 74.6523
RightForeArm 6.62006 -0.578658 3.59253
RightHand -0.940828 13.8682 -6.07224
LeftUpLeg -47.4934 -7.55472 7.89455
LeftLeg 75.8091 -1.99137 -7.87604
LeftFoot -4.08955 0.40952 -6.0719
LeftToes 3.91355e-005 3.11907e-005 -4.10385e-006
604
root 2.4311 24.7019 -15.3705 151.122 13.7854 -177.325
RightUpLeg -47.1696 5.67882 -1.35406
RightLeg 73.7158 1.44136 4.58891
RightFoot -1.11206 -0.742713 8.19748
RightToes -0.000541893 -0.000659172 -0.000493268
Spine 12.7656 -0.557657 1.96778
Spine1 25.7339 -1.48536 3.3133
HEad -15.6676 -30.3828 7.10016
LeftShoulder1 -3.88251e-019 -0 -3.92111e-022
LeftArm -32.2454 -3.50841 -85.0107
LeftForeArm 20.3831 2.21902 1.35885
LeftHand -0.770734 -6.41119 7.90735
RightShoulder 7.45443e-017 -2.42657e-020 1.96277e-018
RightArm -24.0721 -1.18024 74.9888
RightForeArm 9.0194 -0.186741 4.01229
RightHand -1.61334 14.336 -9.872
LeftUpLeg -47.5289 -7.22652 7.86137
LeftLeg 75.6816 -1.6822 -6.39723
LeftFoot -3.85759 0.474512 -6.89543
LeftToes 3.91355e-005 3.11907e-005 -4.10385e-006
605
root 2.48843 24.6824 -15.4179 151.076 13.5908 -177.568
RightUpLeg -47.3105 5.39873 -1.58648
RightLeg 74.2121 1.46031 4.83451
RightFoot -1.53097 -0.715843 8.20518
RightToes -0.000541893 -0.000659172 -0.000493268
Spine 12.8696 -0.466978 1.84277
Spine1 25.9472 -1.28634 3.15126
HEad -16.0615 -30.955 8.12749
LeftShoulder1 -3.88251e-019 -0 -3.92111e-022
LeftArm -32.3364 -3.4274 -84.9109
LeftForeArm 20.5519 2.2266 1.18192
LeftHand -0.760851 -6.51797 7.74571
RightShoulder 7.45443e-017 -2.42657e-020 1.96277e-018
RightArm -24.0856 -1.62402 75.2051
RightForeArm 9.59425 0.415969 4.56621
RightHand -1.81043 14.3888 -10.9952
LeftUpLeg -47.5207 -6.82922 7.61572
LeftLeg 75.7485 -1.58933 -6.01043
LeftFoot -3.63381 0.473478 -6.70124
LeftToes 3.91355e-005 3.11907e-005 -4.10385e-006
606
root 2.50279 24.6652 -15.4368 150.933 13.4395 -177.719
RightUpLeg -47.2244 5.1438 -1.76744
RightLeg 74.2954 1.48604 4.96927
RightFoot -1.63306 -0.705413 8.16275
RightToes -0.000541893 -0.000659172 -0.000493268
Spine 13.1451 -0.354784 1.7692
Spine1 26.5029 -1.05655 3.04963
HEad -16.9347 -31.7021 9.76372
LeftShoulder1 -3.88251e-019 -0 -3.92111e-022
LeftArm -32.1422 -3.41008 -84.7535
LeftForeArm 20.4675 2.25583 0.745331
LeftHand -0.726864 -6.54167 7.40228
RightShoulder 7.45443e-017 -2.42657e-020 1.96277e-018
RightArm -23.9355 -1.68387 75.1173
RightForeArm 8.43774 0.963006 5.01393
RightHand -1.73719 14.1494 -10.6938
LeftUpLeg -47.429 -6.59466 7.33293
LeftLeg 75.8353 -1.65391 -6.35042
LeftFoot -3.48078 0.433265 -5.99937
LeftToes 3.91355e-005 3.11907e-005 -4.10385e-006
607
root 2.49734 24.6544 -15.4384 150.885 13.3222 -177.796
RightUpLeg -47.2167 4.74807 -1.85543
RightLeg 74.3584 1.52672 5.15935
RightFoot -1.57691 -0.681712 7.81396
RightToes -0.000541893 -0.000659172 -0.000493268
Spine 13.4184 -0.255189 1.73871
Spine1 27.0538 -0.86223 3.03428
HEad -17.6478 -32.4566 11.3015
LeftShoulder1 -3.88251e-019 -0 -3.92111e-022
LeftArm -31.7113 -3.27715 -84.6158
LeftForeArm 20.5869 2.29449 0.221828
LeftHand -0.703948 -6.57917 7.1598
RightShoulder 7.45443e-017 -2.42657e-020 1.96277e-018
RightArm -23.5632 -1.42178 74.5536
RightForeArm 8.78535 1.23682 5.62183
RightHand -1.80743 14.0033 -11.183
LeftUpLeg -47.4279 -6.56051 7.15717
LeftLeg 75.8384 -1.68556 -6.49675
LeftFoot -3.37445 0.427202 -5.84135
LeftToes 3.91355e-005 3.11907e-005 -4.10385e-006
608
root 2.48987 24.6504 -15.4305 150.975 13.1531 -177.838
RightUpLeg -47.3469 4.33661 -1.98275
RightLeg 74.4364 1.57906 5.4045
RightFoot -1.65392 -0.672528 7.69601
RightToes -0.000541893 -0.000659172 -0.000493268
Spine 13.6024 -0.218043 1.73093
Spine1 27.4255 -0.796719 3.0654
HEad -18.048 -33.1843 12.3049
LeftShoulder1 -3.88251e-019 -0 -3.92111e-022
LeftArm -31.3443 -3.16312 -84.4487
LeftForeArm 21.1907 2.33321 -0.305104
LeftHand -0.71909 -6.739 7.21717
RightShoulder 7.45443e-017 -2.42657e-020 1.96277e-018
RightArm -23.0979 -1.19135 73.8419
RightForeArm 11.9208 1.45152 6.34435
RightHand -1.99994 13.8604 -12.407
LeftUpLeg -47.5565 -6.72044 7.03138
LeftLeg 75.7556 -1.66666 -6.36486
LeftFoot -3.25755 0.447279 -6.05053
LeftToes 3.91355e-005 3.11907e-005 -4.10385e-006
609
root 2.48199 24.6618 -15.4064 151.113 12.9298 -177.846
RightUpLeg -47.4548 4.05728 -2.14452
RightLeg 74.3144 1.62024 5.52285
RightFoot -1.5705 -0.675669 7.76971
RightToes -0.000541893 -0.000659172 -0.000493268
Spine 13.7536 -0.216487 1.74588
Spine1 27.73 -0.805223 3.11767
HEad -18.3167 -34.1201 12.9729
LeftShoulder1 -3.88251e-019 -0 -3.92111e-022
LeftArm -31.1664 -3.45063 -84.1883
LeftForeArm 22.0665 2.3707 -0.802526
LeftHand -0.729344 -6.90589 7.22382
RightShoulder 7.45443e-017 -2.42657e-020 1.96277e-018
RightArm -22.685 -1.16947 73.4109
RightForeArm 14.4166 1.86921 6.75719
RightHand -2.04974 13.5796 -12.8816
LeftUpLeg -47.7087 -7.09733 6.92787
LeftLeg 75.5805 -1.6466 -6.21392
LeftFoot -3.10106 0.463303 -6.16548
LeftToes 3.91355e-005 3.11907e-005 -4.10385e-006
